<mxfile host="Electron" modified="2024-07-07T15:58:43.777Z" agent="Mozilla/5.0 (Windows NT 10.0; Win64; x64) AppleWebKit/537.36 (KHTML, like Gecko) draw.io/22.1.2 Chrome/114.0.5735.289 Electron/25.9.4 Safari/537.36" etag="xsuAwd-cj_M0vRtH4ffO" version="22.1.2" type="device">
  <diagram name="Page-1" id="Hg5XisLCU2IsENQMA0mm">
    <mxGraphModel dx="2206" dy="1360" grid="1" gridSize="10" guides="1" tooltips="1" connect="1" arrows="1" fold="1" page="1" pageScale="1" pageWidth="1920" pageHeight="1200" math="0" shadow="0">
      <root>
        <mxCell id="0" />
        <mxCell id="1" parent="0" />
        <mxCell id="6LKq3HCJM34wtcaLck5o-1" value="Application" style="swimlane;fontStyle=1;align=center;verticalAlign=top;childLayout=stackLayout;horizontal=1;startSize=26;horizontalStack=0;resizeParent=1;resizeParentMax=0;resizeLast=0;collapsible=1;marginBottom=0;whiteSpace=wrap;html=1;" vertex="1" parent="1">
          <mxGeometry x="930" y="415" width="160" height="160" as="geometry" />
        </mxCell>
        <mxCell id="6LKq3HCJM34wtcaLck5o-2" value="- Ref&amp;lt;IDisplay&amp;gt;&lt;br&gt;- Ref&amp;lt;IRenderDriver&amp;gt;&lt;br&gt;- Config&lt;br&gt;- shouldRun: bool" style="text;strokeColor=none;fillColor=none;align=left;verticalAlign=top;spacingLeft=4;spacingRight=4;overflow=hidden;rotatable=0;points=[[0,0.5],[1,0.5]];portConstraint=eastwest;whiteSpace=wrap;html=1;" vertex="1" parent="6LKq3HCJM34wtcaLck5o-1">
          <mxGeometry y="26" width="160" height="64" as="geometry" />
        </mxCell>
        <mxCell id="6LKq3HCJM34wtcaLck5o-3" value="" style="line;strokeWidth=1;fillColor=none;align=left;verticalAlign=middle;spacingTop=-1;spacingLeft=3;spacingRight=3;rotatable=0;labelPosition=right;points=[];portConstraint=eastwest;strokeColor=inherit;" vertex="1" parent="6LKq3HCJM34wtcaLck5o-1">
          <mxGeometry y="90" width="160" height="10" as="geometry" />
        </mxCell>
        <mxCell id="6LKq3HCJM34wtcaLck5o-4" value="+ init(): Bool&lt;br&gt;+ onResize(...): void&lt;br&gt;+ onClose(...): void" style="text;strokeColor=none;fillColor=none;align=left;verticalAlign=top;spacingLeft=4;spacingRight=4;overflow=hidden;rotatable=0;points=[[0,0.5],[1,0.5]];portConstraint=eastwest;whiteSpace=wrap;html=1;" vertex="1" parent="6LKq3HCJM34wtcaLck5o-1">
          <mxGeometry y="100" width="160" height="60" as="geometry" />
        </mxCell>
        <mxCell id="6LKq3HCJM34wtcaLck5o-5" value="Config" style="swimlane;fontStyle=1;align=center;verticalAlign=top;childLayout=stackLayout;horizontal=1;startSize=26;horizontalStack=0;resizeParent=1;resizeParentMax=0;resizeLast=0;collapsible=1;marginBottom=0;whiteSpace=wrap;html=1;" vertex="1" parent="1">
          <mxGeometry x="475" y="363.63" width="210" height="160" as="geometry" />
        </mxCell>
        <mxCell id="6LKq3HCJM34wtcaLck5o-6" value="- cfgmap: un_map&amp;lt;string, Variant&amp;gt;" style="text;strokeColor=none;fillColor=none;align=left;verticalAlign=top;spacingLeft=4;spacingRight=4;overflow=hidden;rotatable=0;points=[[0,0.5],[1,0.5]];portConstraint=eastwest;whiteSpace=wrap;html=1;" vertex="1" parent="6LKq3HCJM34wtcaLck5o-5">
          <mxGeometry y="26" width="210" height="44" as="geometry" />
        </mxCell>
        <mxCell id="6LKq3HCJM34wtcaLck5o-7" value="" style="line;strokeWidth=1;fillColor=none;align=left;verticalAlign=middle;spacingTop=-1;spacingLeft=3;spacingRight=3;rotatable=0;labelPosition=right;points=[];portConstraint=eastwest;strokeColor=inherit;" vertex="1" parent="6LKq3HCJM34wtcaLck5o-5">
          <mxGeometry y="70" width="210" height="8" as="geometry" />
        </mxCell>
        <mxCell id="6LKq3HCJM34wtcaLck5o-8" value="+ loadConfig(source) : bool&lt;br&gt;+ operator[](string) : Variant&amp;amp;&lt;br&gt;- readConfig(buffer, size) : bool&lt;br&gt;- parseLine(char* line): bool" style="text;strokeColor=none;fillColor=none;align=left;verticalAlign=top;spacingLeft=4;spacingRight=4;overflow=hidden;rotatable=0;points=[[0,0.5],[1,0.5]];portConstraint=eastwest;whiteSpace=wrap;html=1;" vertex="1" parent="6LKq3HCJM34wtcaLck5o-5">
          <mxGeometry y="78" width="210" height="82" as="geometry" />
        </mxCell>
        <mxCell id="6LKq3HCJM34wtcaLck5o-13" value="Variant" style="swimlane;fontStyle=1;align=center;verticalAlign=top;childLayout=stackLayout;horizontal=1;startSize=26;horizontalStack=0;resizeParent=1;resizeParentMax=0;resizeLast=0;collapsible=1;marginBottom=0;whiteSpace=wrap;html=1;" vertex="1" parent="1">
          <mxGeometry x="235" y="379.63" width="160" height="108" as="geometry" />
        </mxCell>
        <mxCell id="6LKq3HCJM34wtcaLck5o-14" value="m_type : Type" style="text;strokeColor=none;fillColor=none;align=left;verticalAlign=top;spacingLeft=4;spacingRight=4;overflow=hidden;rotatable=0;points=[[0,0.5],[1,0.5]];portConstraint=eastwest;whiteSpace=wrap;html=1;" vertex="1" parent="6LKq3HCJM34wtcaLck5o-13">
          <mxGeometry y="26" width="160" height="30" as="geometry" />
        </mxCell>
        <mxCell id="6LKq3HCJM34wtcaLck5o-15" value="" style="line;strokeWidth=1;fillColor=none;align=left;verticalAlign=middle;spacingTop=-1;spacingLeft=3;spacingRight=3;rotatable=0;labelPosition=right;points=[];portConstraint=eastwest;strokeColor=inherit;" vertex="1" parent="6LKq3HCJM34wtcaLck5o-13">
          <mxGeometry y="56" width="160" height="8" as="geometry" />
        </mxCell>
        <mxCell id="6LKq3HCJM34wtcaLck5o-16" value="operator &amp;lt;type&amp;gt;(): &amp;lt;type&amp;gt;&lt;br&gt;operator=(&amp;lt;type&amp;gt;): void" style="text;strokeColor=none;fillColor=none;align=left;verticalAlign=top;spacingLeft=4;spacingRight=4;overflow=hidden;rotatable=0;points=[[0,0.5],[1,0.5]];portConstraint=eastwest;whiteSpace=wrap;html=1;" vertex="1" parent="6LKq3HCJM34wtcaLck5o-13">
          <mxGeometry y="64" width="160" height="44" as="geometry" />
        </mxCell>
        <mxCell id="6LKq3HCJM34wtcaLck5o-53" style="edgeStyle=orthogonalEdgeStyle;rounded=0;orthogonalLoop=1;jettySize=auto;html=1;endArrow=diamondThin;endFill=1;endSize=15;" edge="1" parent="1" source="6LKq3HCJM34wtcaLck5o-21" target="6LKq3HCJM34wtcaLck5o-51">
          <mxGeometry relative="1" as="geometry" />
        </mxCell>
        <mxCell id="6LKq3HCJM34wtcaLck5o-21" value="&lt;p style=&quot;margin:0px;margin-top:6px;text-align:center;&quot;&gt;&lt;b&gt;ShaderProgramDescription&lt;/b&gt;&lt;/p&gt;&lt;hr&gt;&lt;p style=&quot;margin:0px;margin-left:8px;&quot;&gt;+ filename: char*&lt;/p&gt;&lt;p style=&quot;margin:0px;margin-left:8px;&quot;&gt;+ vertexShader: ShaderDesc*&lt;/p&gt;&lt;p style=&quot;margin:0px;margin-left:8px;&quot;&gt;+ pixelShader: ShaderDesc*&lt;/p&gt;" style="align=left;overflow=fill;html=1;dropTarget=0;whiteSpace=wrap;" vertex="1" parent="1">
          <mxGeometry x="1485" y="827.25" width="210" height="90" as="geometry" />
        </mxCell>
        <mxCell id="6LKq3HCJM34wtcaLck5o-22" value="" style="shape=component;jettyWidth=8;jettyHeight=4;" vertex="1" parent="6LKq3HCJM34wtcaLck5o-21">
          <mxGeometry x="1" width="20" height="20" relative="1" as="geometry">
            <mxPoint x="-24" y="4" as="offset" />
          </mxGeometry>
        </mxCell>
        <mxCell id="6LKq3HCJM34wtcaLck5o-23" value="&lt;p style=&quot;margin:0px;margin-top:4px;text-align:center;&quot;&gt;&lt;i&gt;&amp;lt;&amp;lt;Interface&amp;gt;&amp;gt;&lt;/i&gt;&lt;br&gt;&lt;b&gt;IDisplay&lt;/b&gt;&lt;/p&gt;&lt;hr size=&quot;1&quot;&gt;&lt;p style=&quot;margin:0px;margin-left:4px;&quot;&gt;+ static createDisplay: Ref&amp;lt;IDisplay&amp;gt;&lt;/p&gt;&lt;p style=&quot;margin:0px;margin-left:4px;&quot;&gt;+ virt. create(w, h, windowed, title): int&lt;/p&gt;&lt;p style=&quot;margin:0px;margin-left:4px;&quot;&gt;+ virt. destroy(): void&lt;/p&gt;&lt;p style=&quot;margin:0px;margin-left:4px;&quot;&gt;+ virt. show() : void&lt;/p&gt;&lt;p style=&quot;margin:0px;margin-left:4px;&quot;&gt;+ virt. hide() : void&lt;/p&gt;&lt;p style=&quot;margin:0px;margin-left:4px;&quot;&gt;+ virt. processEvents(): void&lt;/p&gt;&lt;p style=&quot;margin:0px;margin-left:4px;&quot;&gt;+ virt. createRenderDriverConfig(): RenderDriverConfig&lt;/p&gt;&lt;p style=&quot;margin:0px;margin-left:4px;&quot;&gt;+ virt. setWindowResizeCallback(...): void&lt;/p&gt;&lt;p style=&quot;margin:0px;margin-left:4px;&quot;&gt;+ virt. setWindowCloseCallback(...): void&lt;/p&gt;" style="verticalAlign=top;align=left;overflow=fill;fontSize=12;fontFamily=Helvetica;html=1;whiteSpace=wrap;" vertex="1" parent="1">
          <mxGeometry x="1255" y="352.26" width="300" height="182.75" as="geometry" />
        </mxCell>
        <mxCell id="6LKq3HCJM34wtcaLck5o-55" style="edgeStyle=orthogonalEdgeStyle;rounded=0;orthogonalLoop=1;jettySize=auto;html=1;entryX=0;entryY=0.5;entryDx=0;entryDy=0;" edge="1" parent="1" source="6LKq3HCJM34wtcaLck5o-24" target="6LKq3HCJM34wtcaLck5o-26">
          <mxGeometry relative="1" as="geometry" />
        </mxCell>
        <mxCell id="6LKq3HCJM34wtcaLck5o-56" value="&amp;lt;&amp;lt; creates &amp;gt;&amp;gt;" style="edgeLabel;html=1;align=center;verticalAlign=middle;resizable=0;points=[];" vertex="1" connectable="0" parent="6LKq3HCJM34wtcaLck5o-55">
          <mxGeometry x="0.0454" y="-1" relative="1" as="geometry">
            <mxPoint as="offset" />
          </mxGeometry>
        </mxCell>
        <mxCell id="6LKq3HCJM34wtcaLck5o-60" style="edgeStyle=orthogonalEdgeStyle;rounded=0;orthogonalLoop=1;jettySize=auto;html=1;entryX=1;entryY=0.5;entryDx=0;entryDy=0;" edge="1" parent="1" source="6LKq3HCJM34wtcaLck5o-24" target="6LKq3HCJM34wtcaLck5o-25">
          <mxGeometry relative="1" as="geometry" />
        </mxCell>
        <mxCell id="6LKq3HCJM34wtcaLck5o-61" value="&amp;lt;&amp;lt; creates &amp;gt;&amp;gt;" style="edgeLabel;html=1;align=center;verticalAlign=middle;resizable=0;points=[];" vertex="1" connectable="0" parent="6LKq3HCJM34wtcaLck5o-60">
          <mxGeometry x="0.0092" y="-1" relative="1" as="geometry">
            <mxPoint as="offset" />
          </mxGeometry>
        </mxCell>
        <mxCell id="6LKq3HCJM34wtcaLck5o-66" style="edgeStyle=orthogonalEdgeStyle;rounded=0;orthogonalLoop=1;jettySize=auto;html=1;entryX=0.5;entryY=1;entryDx=0;entryDy=0;entryPerimeter=0;endArrow=diamondThin;endFill=1;endSize=15;" edge="1" parent="1" source="6LKq3HCJM34wtcaLck5o-24" target="6LKq3HCJM34wtcaLck5o-4">
          <mxGeometry relative="1" as="geometry">
            <mxPoint x="1010" y="585" as="targetPoint" />
          </mxGeometry>
        </mxCell>
        <mxCell id="6LKq3HCJM34wtcaLck5o-24" value="&lt;p style=&quot;margin:0px;margin-top:4px;text-align:center;&quot;&gt;&lt;i&gt;&amp;lt;&amp;lt;Interface&amp;gt;&amp;gt;&lt;/i&gt;&lt;br&gt;&lt;b&gt;IRenderDriver&lt;/b&gt;&lt;/p&gt;&lt;hr size=&quot;1&quot;&gt;&lt;p style=&quot;margin:0px;margin-left:4px;&quot;&gt;+ static createRenderDriver(api): Ref&amp;lt;IRenderDriver&amp;gt;&lt;/p&gt;&lt;p style=&quot;margin:0px;margin-left:4px;&quot;&gt;+ virt. init(driverConfig): int&lt;/p&gt;&lt;p style=&quot;margin:0px;margin-left:4px;&quot;&gt;+ virt. terminate(): int&lt;/p&gt;&lt;p style=&quot;margin:0px;margin-left:4px;&quot;&gt;+ virt. createBuffer(BufDesc&amp;amp;) : IBuffer*&lt;/p&gt;&lt;p style=&quot;margin:0px;margin-left:4px;&quot;&gt;+ virt. createShaderProgram(ShaderProgDesc&amp;amp;): IShaderProgram*&lt;/p&gt;&lt;p style=&quot;margin:0px;margin-left:4px;&quot;&gt;+ virt. setClearColor(r,g,b,a): void&lt;/p&gt;&lt;p style=&quot;margin:0px;margin-left:4px;&quot;&gt;+ virt. setViewport(x,y,w,h): void&lt;/p&gt;&lt;p style=&quot;margin:0px;margin-left:4px;&quot;&gt;+ virt. clear(): void&lt;/p&gt;&lt;p style=&quot;margin:0px;margin-left:4px;&quot;&gt;+ virt. swapBuffers(): void&lt;/p&gt;" style="verticalAlign=top;align=left;overflow=fill;fontSize=12;fontFamily=Helvetica;html=1;whiteSpace=wrap;" vertex="1" parent="1">
          <mxGeometry x="825" y="695" width="370" height="220" as="geometry" />
        </mxCell>
        <mxCell id="6LKq3HCJM34wtcaLck5o-25" value="&lt;p style=&quot;margin:0px;margin-top:4px;text-align:center;&quot;&gt;&lt;i&gt;&amp;lt;&amp;lt;Interface&amp;gt;&amp;gt;&lt;/i&gt;&lt;br&gt;&lt;b&gt;IBuffer&lt;/b&gt;&lt;/p&gt;&lt;hr size=&quot;1&quot;&gt;&lt;p style=&quot;margin:0px;margin-left:4px;&quot;&gt;+ virt. destroy(): void&lt;/p&gt;&lt;p style=&quot;margin:0px;margin-left:4px;&quot;&gt;+ virt. getType(): buffer_t&lt;/p&gt;&lt;p style=&quot;margin:0px;margin-left:4px;&quot;&gt;+ virt. copyData(size, data): void&lt;/p&gt;&lt;p style=&quot;margin:0px;margin-left:4px;&quot;&gt;+ virt. copySubData(size, data, offset): void&lt;/p&gt;" style="verticalAlign=top;align=left;overflow=fill;fontSize=12;fontFamily=Helvetica;html=1;whiteSpace=wrap;" vertex="1" parent="1">
          <mxGeometry x="445" y="695" width="250" height="140" as="geometry" />
        </mxCell>
        <mxCell id="6LKq3HCJM34wtcaLck5o-26" value="&lt;p style=&quot;margin:0px;margin-top:4px;text-align:center;&quot;&gt;&lt;i&gt;&amp;lt;&amp;lt;Interface&amp;gt;&amp;gt;&lt;/i&gt;&lt;br&gt;&lt;b&gt;IShaderProgram&lt;/b&gt;&lt;/p&gt;&lt;hr size=&quot;1&quot;&gt;&lt;p style=&quot;margin:0px;margin-left:4px;&quot;&gt;+ set&amp;lt;Type&amp;gt;(name, data): void&lt;/p&gt;" style="verticalAlign=top;align=left;overflow=fill;fontSize=12;fontFamily=Helvetica;html=1;whiteSpace=wrap;" vertex="1" parent="1">
          <mxGeometry x="1295" y="695" width="190" height="85" as="geometry" />
        </mxCell>
        <mxCell id="6LKq3HCJM34wtcaLck5o-65" style="edgeStyle=orthogonalEdgeStyle;rounded=0;orthogonalLoop=1;jettySize=auto;html=1;entryX=0.5;entryY=0;entryDx=0;entryDy=0;endArrow=diamondThin;endFill=1;endSize=15;" edge="1" parent="1" source="6LKq3HCJM34wtcaLck5o-44" target="6LKq3HCJM34wtcaLck5o-13">
          <mxGeometry relative="1" as="geometry" />
        </mxCell>
        <mxCell id="6LKq3HCJM34wtcaLck5o-44" value="&lt;p style=&quot;margin:0px;margin-top:6px;text-align:center;&quot;&gt;&lt;b&gt;Union&lt;/b&gt;&lt;/p&gt;&lt;hr&gt;&lt;p style=&quot;margin:0px;margin-left:8px;&quot;&gt;- _int : int&lt;/p&gt;&lt;p style=&quot;margin:0px;margin-left:8px;&quot;&gt;- _bool : bool&lt;/p&gt;" style="align=left;overflow=fill;html=1;dropTarget=0;whiteSpace=wrap;" vertex="1" parent="1">
          <mxGeometry x="225" y="245" width="180" height="90" as="geometry" />
        </mxCell>
        <mxCell id="6LKq3HCJM34wtcaLck5o-45" value="" style="shape=component;jettyWidth=8;jettyHeight=4;" vertex="1" parent="6LKq3HCJM34wtcaLck5o-44">
          <mxGeometry x="1" width="20" height="20" relative="1" as="geometry">
            <mxPoint x="-24" y="4" as="offset" />
          </mxGeometry>
        </mxCell>
        <mxCell id="6LKq3HCJM34wtcaLck5o-62" style="edgeStyle=orthogonalEdgeStyle;rounded=0;orthogonalLoop=1;jettySize=auto;html=1;entryX=0;entryY=0.75;entryDx=0;entryDy=0;endArrow=none;endFill=0;" edge="1" parent="1" source="6LKq3HCJM34wtcaLck5o-49" target="6LKq3HCJM34wtcaLck5o-24">
          <mxGeometry relative="1" as="geometry" />
        </mxCell>
        <mxCell id="6LKq3HCJM34wtcaLck5o-49" value="&lt;p style=&quot;margin:0px;margin-top:6px;text-align:center;&quot;&gt;&lt;b&gt;BufferDescription&lt;/b&gt;&lt;/p&gt;&lt;hr&gt;&lt;p style=&quot;margin:0px;margin-left:8px;&quot;&gt;+ type: buffer_t&lt;/p&gt;&lt;p style=&quot;margin:0px;margin-left:8px;&quot;&gt;+ size: size_t&lt;/p&gt;&lt;p style=&quot;margin:0px;margin-left:8px;&quot;&gt;+ count: size_t&lt;/p&gt;&lt;p style=&quot;margin:0px;margin-left:8px;&quot;&gt;+ data: void *&lt;/p&gt;&lt;p style=&quot;margin:0px;margin-left:8px;&quot;&gt;+ binding: size_t&lt;/p&gt;" style="align=left;overflow=fill;html=1;dropTarget=0;whiteSpace=wrap;" vertex="1" parent="1">
          <mxGeometry x="465" y="845" width="180" height="110" as="geometry" />
        </mxCell>
        <mxCell id="6LKq3HCJM34wtcaLck5o-50" value="" style="shape=component;jettyWidth=8;jettyHeight=4;" vertex="1" parent="6LKq3HCJM34wtcaLck5o-49">
          <mxGeometry x="1" width="20" height="20" relative="1" as="geometry">
            <mxPoint x="-24" y="4" as="offset" />
          </mxGeometry>
        </mxCell>
        <mxCell id="6LKq3HCJM34wtcaLck5o-51" value="&lt;p style=&quot;margin:0px;margin-top:6px;text-align:center;&quot;&gt;&lt;b&gt;ShaderDescription&lt;/b&gt;&lt;/p&gt;&lt;hr&gt;&lt;p style=&quot;margin:0px;margin-left:8px;&quot;&gt;+ type&lt;/p&gt;&lt;p style=&quot;margin:0px;margin-left:8px;&quot;&gt;+ function/sectionname: char *&lt;/p&gt;" style="align=left;overflow=fill;html=1;dropTarget=0;whiteSpace=wrap;" vertex="1" parent="1">
          <mxGeometry x="1500" y="695" width="180" height="90" as="geometry" />
        </mxCell>
        <mxCell id="6LKq3HCJM34wtcaLck5o-52" value="" style="shape=component;jettyWidth=8;jettyHeight=4;" vertex="1" parent="6LKq3HCJM34wtcaLck5o-51">
          <mxGeometry x="1" width="20" height="20" relative="1" as="geometry">
            <mxPoint x="-24" y="4" as="offset" />
          </mxGeometry>
        </mxCell>
        <mxCell id="6LKq3HCJM34wtcaLck5o-57" style="edgeStyle=orthogonalEdgeStyle;rounded=0;orthogonalLoop=1;jettySize=auto;html=1;entryX=1.003;entryY=0.803;entryDx=0;entryDy=0;entryPerimeter=0;endArrow=none;endFill=0;" edge="1" parent="1" source="6LKq3HCJM34wtcaLck5o-21" target="6LKq3HCJM34wtcaLck5o-24">
          <mxGeometry relative="1" as="geometry" />
        </mxCell>
        <mxCell id="6LKq3HCJM34wtcaLck5o-67" style="edgeStyle=orthogonalEdgeStyle;rounded=0;orthogonalLoop=1;jettySize=auto;html=1;endArrow=diamondThin;endFill=1;endSize=15;entryX=0.99;entryY=0.524;entryDx=0;entryDy=0;entryPerimeter=0;" edge="1" parent="1" source="6LKq3HCJM34wtcaLck5o-23" target="6LKq3HCJM34wtcaLck5o-3">
          <mxGeometry relative="1" as="geometry">
            <mxPoint x="1095" y="510" as="targetPoint" />
          </mxGeometry>
        </mxCell>
        <mxCell id="6LKq3HCJM34wtcaLck5o-69" style="edgeStyle=orthogonalEdgeStyle;rounded=0;orthogonalLoop=1;jettySize=auto;html=1;entryX=-0.005;entryY=0.707;entryDx=0;entryDy=0;entryPerimeter=0;endArrow=diamondThin;endFill=1;endSize=15;" edge="1" parent="1" source="6LKq3HCJM34wtcaLck5o-14" target="6LKq3HCJM34wtcaLck5o-6">
          <mxGeometry relative="1" as="geometry" />
        </mxCell>
        <mxCell id="6LKq3HCJM34wtcaLck5o-70" style="edgeStyle=orthogonalEdgeStyle;rounded=0;orthogonalLoop=1;jettySize=auto;html=1;entryX=0.001;entryY=0.457;entryDx=0;entryDy=0;entryPerimeter=0;endArrow=diamondThin;endFill=1;endSize=15;" edge="1" parent="1" source="6LKq3HCJM34wtcaLck5o-5" target="6LKq3HCJM34wtcaLck5o-3">
          <mxGeometry relative="1" as="geometry">
            <mxPoint x="925" y="510" as="targetPoint" />
          </mxGeometry>
        </mxCell>
      </root>
    </mxGraphModel>
  </diagram>
</mxfile>
